# xmcd
#
# Track frame offsets:
#	150
#	17725
#	35512
#	51070
#	67822
#	86702
#	105435
#	120945
#	139832
#	157265
#	172260
#	189835
#	207622
#	223177
#	239930
#	258810
#	277542
#	293052
#	311940
#	329372
#
# Disc length: 4591 seconds
#
# Revision: 1
# Processed by: cddbd v1.5.2PL0 Copyright (c) Steve Scherf et al.
# Submitted via: audiograbber 1.83.01
#
DISCID=2b11ed14
DTITLE=Top Hits Monthly Country - THC0509
DYEAR=2005
DGENRE=Karaoke
TTITLE0=Toby Keith - As Good As I Once Was (Vocals)
TTITLE1=Faith Hill - Mississippi Girl (Vocals)
TTITLE2=Brooks and Dunn - Play Something Country (Vocals)
TTITLE3=Tim Mcgraw - Do You Want Fries With That (Vocals)
TTITLE4=Montgomery Gentry - Something To Be Proud Of (Vocals)
TTITLE5=Trace Adkins - Arlington (Vocals)
TTITLE6=Cowboy Crush - Nobody Ever Died Of A Broken Heart (Vocals)
TTITLE7=Little Big Town - Boondocks (Vocals)
TTITLE8=Kerry Harvick) - That's What Your Love Does (Vocals)
TTITLE9=Lonestar - You're Like Coming Home (Vocals)
TTITLE10=Toby Keith - As Good As I Once Was
TTITLE11=Faith Hill - Mississippi Girl
TTITLE12=Brooks and Dunn - Play Something Country
TTITLE13=Tim Mcgraw - Do You Want Fries With That
TTITLE14=Montgomery Gentry - Something To Be Proud Of
TTITLE15=Trace Adkins - Arlington
TTITLE16=Cowboy Crush - Nobody Ever Died Of A Broken Heart
TTITLE17=Little Big Town - Boondocks
TTITLE18=Kerry Harvick - That's What Your Love Does
TTITLE19=Lonestar - You're Like Coming Home
EXTD=Fixed vocal listings
EXTT0=
EXTT1=
EXTT2=
EXTT3=
EXTT4=
EXTT5=
EXTT6=
EXTT7=
EXTT8=
EXTT9=
EXTT10=
EXTT11=
EXTT12=
EXTT13=
EXTT14=
EXTT15=
EXTT16=
EXTT17=
EXTT18=
EXTT19=
PLAYORDER=
